<svg width="24" height="40" viewBox="0 0 24 40" fill="none" xmlns="http://www.w3.org/2000/svg">
<path d="M0 3C0 2.2 0.300001 1.5 0.900002 0.9C1.5 0.3 2.2 0 3 0L21 0C21.7667 0 22.4583 0.3 23.075 0.9C23.6917 1.5 24 2.2 24 3L24 37C24 37.8 23.6917 38.5 23.075 39.1C22.4583 39.7 21.7667 40 21 40L3 40C2.2 40 1.5 39.7 0.900002 39.1C0.300001 38.5 0 37.8 0 37L0 3ZM3 3L3 37L21 37V30.5L12 30.5V27.5L21 27.5V21.5L12 21.5L12 18.5L21 18.5L21 12.5L12 12.5V9.5L21 9.5L21 3L3 3ZM12 9.5V12.5V9.5ZM12 18.5L12 21.5L12 18.5ZM12 27.5V30.5V27.5Z" fill="#1D1D1D"/>
</svg>
